<svg xmlns="http://www.w3.org/2000/svg" width="1180" height="610" viewBox="0 0 1180 610" fill="none">
<defs>
<linearGradient id="bg" x1="0" y1="0" x2="1180" y2="610"><stop stop-color="#030712"/><stop offset=".55" stop-color="#07111F"/><stop offset="1" stop-color="#030712"/></linearGradient>
<linearGradient id="a" x1="0" y1="0" x2="1" y2="1"><stop stop-color="#7C3AED"><animate attributeName="stop-color" values="#7C3AED;#22D3EE;#10B981;#7C3AED" dur="8s" repeatCount="indefinite"/></stop><stop offset=".5" stop-color="#22D3EE"/><stop offset="1" stop-color="#10B981"/></linearGradient>
<radialGradient id="g1"><stop stop-color="#7C3AED" stop-opacity=".28"/><stop offset="1" stop-color="#7C3AED" stop-opacity="0"/></radialGradient>
<radialGradient id="g2"><stop stop-color="#22D3EE" stop-opacity=".22"/><stop offset="1" stop-color="#22D3EE" stop-opacity="0"/></radialGradient>
<filter id="blur"><feGaussianBlur stdDeviation="35"/></filter>
<filter id="glow"><feGaussianBlur stdDeviation="3" result="b"/><feMerge><feMergeNode in="b"/><feMergeNode in="SourceGraphic"/></feMerge></filter>
<pattern id="noise" width="80" height="80" patternUnits="userSpaceOnUse"><circle cx="10" cy="12" r=".7" fill="#fff" opacity=".08"/><circle cx="52" cy="34" r=".6" fill="#fff" opacity=".06"/><circle cx="30" cy="70" r=".5" fill="#fff" opacity=".05"/></pattern>
<clipPath id="r"><rect width="1180" height="610" rx="30"/></clipPath>
</defs>
<g clip-path="url(#r)">
<rect width="1180" height="610" fill="url(#bg)"/>
<circle cx="170" cy="130" r="250" fill="url(#g1)" filter="url(#blur)"><animateTransform attributeName="transform" type="translate" values="0 0;90 35;0 0" dur="14s" repeatCount="indefinite"/></circle>
<circle cx="1040" cy="500" r="230" fill="url(#g2)" filter="url(#blur)"><animateTransform attributeName="transform" type="translate" values="0 0;-70 -40;0 0" dur="16s" repeatCount="indefinite"/></circle>
<rect width="1180" height="610" fill="url(#noise)"/>
<rect x="28" y="28" width="1124" height="554" rx="28" fill="#0F172A" fill-opacity=".55" stroke="#fff" stroke-opacity=".09"/>
<rect x="48" y="48" width="405" height="514" rx="22" fill="#0B1220" fill-opacity=".60" stroke="#fff" stroke-opacity=".07"/>
<rect x="471" y="48" width="661" height="514" rx="22" fill="#0B1220" fill-opacity=".68" stroke="#fff" stroke-opacity=".07"/>
<rect x="28" y="28" width="1124" height="554" rx="28" fill="none" stroke="url(#a)" stroke-width="1" stroke-dasharray="90 760"><animate attributeName="stroke-dashoffset" values="0;-1700" dur="7s" repeatCount="indefinite"/></rect>

<g font-family="ui-monospace,SFMono-Regular,Menlo,Consolas,monospace">
<text x="78" y="92" fill="#64748B" font-size="13">SUDHEER.SEC / IDENTITY_NODE</text>
<circle cx="1035" cy="77" r="4" fill="#10B981"><animate attributeName="opacity" values=".3;1;.3" dur="1.6s" repeatCount="indefinite"/></circle>

<g transform="translate(78 128)" fill="url(#a)" font-size="12" font-weight="700" filter="url(#glow)">
<text x="0" y="0">&gt;_       .-''''-.       _&lt;</text>
<text x="0" y="22">        .'  .--.  '.</text>
<text x="0" y="44">       /   /    \   \</text>
<text x="0" y="66">      |   |  ◉  ◉ |   |</text>
<text x="0" y="88">      |   |   __ |   |</text>
<text x="0" y="110">      |   |  \__/ |   |</text>
<text x="0" y="132">       \   \____/   /</text>
<text x="0" y="154">        '._      _.'</text>
<text x="0" y="176">           | || |</text>
<text x="0" y="198">        ___| || |___</text>
<text x="0" y="220">       /___ S E C ___\</text>
<text x="0" y="242">      / S O C / D F I R \</text>
<text x="0" y="264">     /____________________\</text>
<animateTransform attributeName="transform" type="translate" values="78 128;78 123;78 128" dur="5s" repeatCount="indefinite"/>
</g>
<rect x="70" y="120" width="365" height="2" fill="#22D3EE" opacity=".25"><animate attributeName="y" values="120;520;120" dur="4.5s" repeatCount="indefinite"/></rect>
<text x="78" y="465" fill="#64748B" font-size="12">SYSTEM STATUS</text>
<text x="78" y="490" fill="#10B981" font-size="13">● ONLINE / DEFENSIVE RESEARCH MODE</text>
<text x="78" y="520" fill="#64748B" font-size="11">Learn → Practice → Build → Document → Improve</text>

<rect x="496" y="73" width="611" height="38" rx="12" fill="#030712" fill-opacity=".55"/>
<circle cx="518" cy="92" r="5" fill="#F87171"/><circle cx="536" cy="92" r="5" fill="#FBBF24"/><circle cx="554" cy="92" r="5" fill="#34D399"/>
<text x="580" y="97" fill="#64748B" font-size="12">sudheer@cyberops:~$ whoami</text>
<text x="520" y="155" fill="#94A3B8" font-size="13">Hi 👋</text>
<text x="520" y="193" fill="#F8FAFC" font-size="34" font-weight="800">I'm Singuru Sudheer</text>
<text x="520" y="222" fill="#22D3EE" font-size="15">Cybersecurity Student • Ethical Hacker • SOC Analyst</text>
<text x="520" y="251" fill="#94A3B8" font-size="13">SOC Operations • Threat Detection • Incident Response • DFIR</text>
<rect x="520" y="270" width="8" height="17" rx="1" fill="#22D3EE"><animate attributeName="opacity" values="1;0;1" dur="1s" repeatCount="indefinite"/></rect>

<g font-size="12">
<text x="520" y="318" fill="#64748B">LOCATION</text><text x="660" y="318" fill="#F8FAFC">Andhra Pradesh, India</text>
<text x="520" y="346" fill="#64748B">EDUCATION</text><text x="660" y="346" fill="#F8FAFC">B.Sc. Computer Science</text>
<text x="520" y="374" fill="#64748B">FOCUS</text><text x="660" y="374" fill="#F8FAFC">SOC • SIEM • DFIR • Security Research</text>
</g>
<text x="520" y="415" fill="#64748B" font-size="11">STACK / TOOLING</text>
<g font-size="11" font-weight="700">
<g fill="#0F172A" stroke="#22D3EE" stroke-opacity=".35">
<rect x="520" y="430" width="72" height="28" rx="14"/><rect x="602" y="430" width="75" height="28" rx="14"/><rect x="687" y="430" width="80" height="28" rx="14"/><rect x="777" y="430" width="82" height="28" rx="14"/><rect x="869" y="430" width="74" height="28" rx="14"/><rect x="953" y="430" width="76" height="28" rx="14"/><rect x="1039" y="430" width="68" height="28" rx="14"/>
</g>
<g fill="#E2E8F0"><text x="536" y="448">Wazuh</text><text x="617" y="448">Splunk</text><text x="704" y="448">Suricata</text><text x="793" y="448">Wireshark</text><text x="885" y="448">Nmap</text><text x="968" y="448">Volatility</text><text x="1051" y="448">YARA</text></g>
</g>
<text x="520" y="490" fill="#64748B" font-size="11">PORTFOLIO</text><text x="620" y="490" fill="#22D3EE" font-size="12">sudheer-infosec.github.io/...</text>
<text x="520" y="522" fill="#64748B" font-size="11">MISSION</text><text x="620" y="522" fill="#F8FAFC" font-size="12">Build safer digital systems through hands-on security.</text>
</g></g>
<rect x="2" y="2" width="1176" height="606" rx="30" fill="none" stroke="#fff" stroke-opacity=".08" stroke-width="2"/>
</svg>